<svg width="170" height="100" xmlns="http://www.w3.org/2000/svg" preserveAspectRatio="xMidYMid meet"
     data-background-color="#00ffef">
    <g>
        <g transform="matrix(1, 0, 0, 1, 105, 0)" id="tight-bounds">
            <svg y="-75" x="-121" id="svg_42" width="200" height="250" viewBox="0 0 395.52 247.2">
                <svg id="svg_43" width="395.52" height="247.2" viewBox="0 0 395.52 247.2">
                    <g id="svg_20" transform="matrix(1,0,0,1,39.55199999999999,42.67865475875534)">
                        <svg id="svg_44" width="316.416" height="161.84269" viewBox="0 0 316.416 161.8426904824893">
                            <svg id="svg_45" width="316.416" height="161.84269"
                                 viewBox="0 0 317.99807999999996 162.65190393490172">
                                <g id="svg_46">
                                    <rect data-palette-color="#374151" id="svg_26" rx="1%"
                                          data-fill-palette-color="primary" class="rect-o-0" stroke="transparent"
                                          stroke-width="0" fill="#4477CE" y="83.48257" x="0" height="4.65278"
                                          width="317.99808"/>
                                </g>
                                <g id="svg_47">
                                    <rect data-palette-color="#374151" id="svg_25" rx="1%"
                                          data-fill-palette-color="primary" class="rect-o-1" stroke="transparent"
                                          stroke-width="0" fill="#4477CE" y="94.22536" x="0" height="4.65278"
                                          width="317.99808"/>
                                </g>
                                <g id="svg_31" transform="matrix(1,0,0,1,0.7910399999999811,111.05817903110845)">
                                    <svg id="svg_48" width="316.416" height="51.59372"
                                         viewBox="0 0 316.416 51.59372490379329">
                                        <svg id="svg_32" width="316.416" height="51.59372"
                                             viewBox="0 0 316.416 51.59372490379329">
                                            <svg id="svg_49" width="316.416" height="51.59372"
                                                 viewBox="0 0 316.416 51.59372490379329">
                                                <svg id="svg_50" data-palette-color="#374151" height="51.59372"
                                                     viewBox="0.05000000074505806 -35.45000076293945 222.02999877929688 36.209999084472656"
                                                     width="316.416">
                                                    <path id="svg_36" data-fill-palette-color="primary"
                                                          class="wordmark-text-0" fill="#8CABFF"
                                                          d="m22,-35.01l8,0l-11.49,35.01l-7.01,0l-11.45,-35.01l7.96,0l6.98,23.36l7.01,-23.36zm17.18,21.02l14.02,0l0,-7.01q0,-1.44 -0.55,-2.72q-0.55,-1.28 -1.51,-2.23q-0.95,-0.95 -2.23,-1.5q-1.28,-0.55 -2.72,-0.55l0,0q-1.44,0 -2.72,0.55q-1.28,0.55 -2.24,1.5q-0.95,0.95 -1.5,2.23q-0.55,1.28 -0.55,2.72l0,0l0,7.01zm21.02,-7.01l0,21l-7,0l0,-7.01l-14.02,0l0,7.01l-6.98,0l0,-21q0,-2.9 1.1,-5.45q1.1,-2.55 2.99,-4.46q1.89,-1.9 4.44,-3q2.55,-1.1 5.46,-1.1l0,0q2.9,0 5.46,1.1q2.55,1.1 4.45,3q1.91,1.91 3,4.46q1.1,2.55 1.1,5.45l0,0zm34.08,-14.01l0,35.01l-7.49,0l-13.5,-23.05l0,23.05l-7.01,0l0,-35.01l7.49,0l13.51,23.07l0,-23.07l7,0zm40.8,17.65l0,0q0,2.49 -0.65,4.8q-0.65,2.31 -1.82,4.32q-1.17,2.01 -2.83,3.67q-1.66,1.66 -3.66,2.85q-2.01,1.18 -4.33,1.83q-2.32,0.65 -4.81,0.65l0,0q-2.49,0 -4.79,-0.65q-2.31,-0.65 -4.32,-1.83q-2.02,-1.19 -3.68,-2.85q-1.66,-1.66 -2.84,-3.67q-1.19,-2.01 -1.83,-4.32q-0.65,-2.31 -0.65,-4.8l0,0q0,-2.49 0.65,-4.81q0.64,-2.32 1.83,-4.32q1.18,-2 2.84,-3.66q1.66,-1.66 3.68,-2.83q2.01,-1.18 4.32,-1.82q2.3,-0.65 4.79,-0.65l0,0q2.49,0 4.81,0.65q2.32,0.64 4.33,1.82q2,1.17 3.66,2.83q1.66,1.66 2.83,3.66q1.17,2 1.82,4.32q0.65,2.32 0.65,4.81zm-6.96,0l0,0q0,-2.29 -0.88,-4.33q-0.88,-2.04 -2.38,-3.54q-1.5,-1.5 -3.54,-2.38q-2.04,-0.88 -4.34,-0.88l0,0q-2.31,0 -4.34,0.88q-2.03,0.88 -3.54,2.38q-1.51,1.5 -2.39,3.54q-0.88,2.04 -0.88,4.33l0,0q0,2.3 0.88,4.31q0.88,2.01 2.39,3.53q1.51,1.51 3.54,2.39q2.03,0.88 4.34,0.88l0,0q2.3,0 4.34,-0.88q2.04,-0.88 3.54,-2.39q1.5,-1.52 2.38,-3.53q0.88,-2.01 0.88,-4.31zm25.24,-3.64l20.5,0l0,6.64l-20.5,0l0,-6.64zm54.73,-7l-7.01,0l0,14.01l7.01,0q1.44,0 2.71,-0.55q1.27,-0.55 2.22,-1.5q0.95,-0.95 1.5,-2.23q0.55,-1.29 0.55,-2.73l0,0q0,-1.44 -0.55,-2.72q-0.55,-1.28 -1.5,-2.23q-0.95,-0.95 -2.22,-1.5q-1.27,-0.55 -2.71,-0.55l0,0zm-7.01,20.99l0,7.01l-7.01,0l0,-35.01l14.02,0q1.93,0 3.71,0.5q1.78,0.5 3.33,1.42q1.55,0.91 2.83,2.19q1.29,1.29 2.2,2.85q0.92,1.56 1.42,3.34q0.5,1.79 0.5,3.71l0,0q0,2.88 -1.1,5.44q-1.1,2.55 -3,4.45q-1.91,1.91 -4.46,3q-2.55,1.1 -5.43,1.1l0,0l-7.01,0z"/>
                                                </svg>
                                            </svg>
                                        </svg>
                                    </svg>
                                </g>
                                <g id="svg_39" transform="matrix(1,0,0,1,80.76426173745368,0)">
                                    <svg id="svg_51" width="156.46956" height="71.30253"
                                         viewBox="0 0 156.4695565250926 71.30252781704233">
                                        <svg id="svg_40" data-fill-palette-color="accent" class="icon-icon-0"
                                             width="156.46956" height="71.30253" xml:space="preserve"
                                             enable-background="new 0 0 100 100"
                                             viewBox="5 29.493873596191406 90 41.01262664794922" y="0" x="0"
                                             version="1.1" xmlns:xlink="http://www.w3.org/1999/xlink"
                                             xmlns="http://www.w3.org/2000/svg">
           <g id="svg_52" data-fill-palette-color="accent" fill="#374151">
            <path id="svg_53" data-fill-palette-color="accent" fill="#4477CE"
                  d="m23.943,30.807l-18.943,19.194l18.942,19.192c1.728,1.751 4.53,1.751 6.258,0.002c1.729,-1.75 1.73,-4.587 0.002,-6.338l-12.009,-12.162l-3.624,2.289l15.634,-15.841c0.864,-0.875 1.295,-2.021 1.295,-3.168c0,-1.147 -0.433,-2.295 -1.297,-3.17c-1.728,-1.749 -4.53,-1.748 -6.258,0.002z"/>
               <path id="svg_54" data-fill-palette-color="accent" fill="#4477CE"
                     d="m76.057,30.808l18.943,19.193l-18.942,19.192c-1.728,1.751 -4.53,1.751 -6.258,0.002c-1.729,-1.75 -1.73,-4.587 -0.002,-6.338l12.009,-12.161l3.624,2.289l-15.635,-15.841c-0.864,-0.875 -1.295,-2.021 -1.295,-3.168c0,-1.147 0.433,-2.295 1.297,-3.17c1.729,-1.75 4.531,-1.749 6.259,0.002z"/>
               <path id="svg_55" data-fill-palette-color="accent" fill="#8CABFF"
                     d="m60.899,32.352c-0.419,-1.068 -1.241,-1.978 -2.366,-2.476c-2.249,-0.997 -4.857,0.028 -5.825,2.288l-13.82,32.062c-0.484,1.13 -0.467,2.355 -0.048,3.422c0.419,1.068 1.241,1.978 2.366,2.476c2.249,0.997 4.857,-0.028 5.825,-2.288l13.82,-32.062c0.484,-1.13 0.467,-2.355 0.048,-3.422z"/>
           </g>
          </svg>
                                    </svg>
                                </g>
                                <g id="svg_56"/>
                            </svg>
                        </svg>
                    </g>
                </svg>
            </svg>
        </g>
    </g>
</svg>
